<svg width="70" height="70" viewBox="0 0 70 70" fill="none" xmlns="http://www.w3.org/2000/svg">
<path d="M34.9998 35C31.7915 35 29.045 33.8577 26.7603 31.5729C24.4755 29.2882 23.3332 26.5417 23.3332 23.3334C23.3332 20.125 24.4755 17.3785 26.7603 15.0938C29.045 12.809 31.7915 11.6667 34.9998 11.6667C38.2082 11.6667 40.9547 12.809 43.2394 15.0938C45.5241 17.3785 46.6665 20.125 46.6665 23.3334C46.6665 26.5417 45.5241 29.2882 43.2394 31.5729C40.9547 33.8577 38.2082 35 34.9998 35ZM11.6665 58.3334V50.1667C11.6665 48.5139 12.0919 46.9948 12.9425 45.6094C13.7932 44.224 14.9234 43.1667 16.3332 42.4375C19.3471 40.9306 22.4096 39.8004 25.5207 39.0469C28.6318 38.2934 31.7915 37.9167 34.9998 37.9167C38.2082 37.9167 41.3679 38.2934 44.479 39.0469C47.5901 39.8004 50.6526 40.9306 53.6665 42.4375C55.0762 43.1667 56.2064 44.224 57.0571 45.6094C57.9078 46.9948 58.3332 48.5139 58.3332 50.1667V58.3334H11.6665ZM17.4998 52.5H52.4998V50.1667C52.4998 49.632 52.3662 49.1459 52.0988 48.7084C51.8314 48.2709 51.479 47.9306 51.0415 47.6875C48.4165 46.375 45.7672 45.3906 43.0936 44.7344C40.42 44.0781 37.7221 43.75 34.9998 43.75C32.2776 43.75 29.5797 44.0781 26.9061 44.7344C24.2325 45.3906 21.5832 46.375 18.9582 47.6875C18.5207 47.9306 18.1682 48.2709 17.9009 48.7084C17.6335 49.1459 17.4998 49.632 17.4998 50.1667V52.5ZM34.9998 29.1667C36.604 29.1667 37.9773 28.5955 39.1196 27.4531C40.262 26.3108 40.8332 24.9375 40.8332 23.3334C40.8332 21.7292 40.262 20.3559 39.1196 19.2136C37.9773 18.0712 36.604 17.5 34.9998 17.5C33.3957 17.5 32.0224 18.0712 30.88 19.2136C29.7377 20.3559 29.1665 21.7292 29.1665 23.3334C29.1665 24.9375 29.7377 26.3108 30.88 27.4531C32.0224 28.5955 33.3957 29.1667 34.9998 29.1667Z" fill="#3B5A9D"/>
<path d="M34.9998 35C31.7915 35 29.045 33.8577 26.7603 31.5729C24.4755 29.2882 23.3332 26.5417 23.3332 23.3334C23.3332 20.125 24.4755 17.3785 26.7603 15.0938C29.045 12.809 31.7915 11.6667 34.9998 11.6667C38.2082 11.6667 40.9547 12.809 43.2394 15.0938C45.5241 17.3785 46.6665 20.125 46.6665 23.3334C46.6665 26.5417 45.5241 29.2882 43.2394 31.5729C40.9547 33.8577 38.2082 35 34.9998 35ZM11.6665 58.3334V50.1667C11.6665 48.5139 12.0919 46.9948 12.9425 45.6094C13.7932 44.224 14.9234 43.1667 16.3332 42.4375C19.3471 40.9306 22.4096 39.8004 25.5207 39.0469C28.6318 38.2934 31.7915 37.9167 34.9998 37.9167C38.2082 37.9167 41.3679 38.2934 44.479 39.0469C47.5901 39.8004 50.6526 40.9306 53.6665 42.4375C55.0762 43.1667 56.2064 44.224 57.0571 45.6094C57.9078 46.9948 58.3332 48.5139 58.3332 50.1667V58.3334H11.6665ZM17.4998 52.5H52.4998V50.1667C52.4998 49.632 52.3662 49.1459 52.0988 48.7084C51.8314 48.2709 51.479 47.9306 51.0415 47.6875C48.4165 46.375 45.7672 45.3906 43.0936 44.7344C40.42 44.0781 37.7221 43.75 34.9998 43.75C32.2776 43.75 29.5797 44.0781 26.9061 44.7344C24.2325 45.3906 21.5832 46.375 18.9582 47.6875C18.5207 47.9306 18.1682 48.2709 17.9009 48.7084C17.6335 49.1459 17.4998 49.632 17.4998 50.1667V52.5ZM34.9998 29.1667C36.604 29.1667 37.9773 28.5955 39.1196 27.4531C40.262 26.3108 40.8332 24.9375 40.8332 23.3334C40.8332 21.7292 40.262 20.3559 39.1196 19.2136C37.9773 18.0712 36.604 17.5 34.9998 17.5C33.3957 17.5 32.0224 18.0712 30.88 19.2136C29.7377 20.3559 29.1665 21.7292 29.1665 23.3334C29.1665 24.9375 29.7377 26.3108 30.88 27.4531C32.0224 28.5955 33.3957 29.1667 34.9998 29.1667Z" fill="black" fill-opacity="0.2"/>
</svg>
