<svg width="17" height="33" viewBox="0 0 17 33" fill="none" xmlns="http://www.w3.org/2000/svg">
<path d="M5.42998 1.2407C4.45823 -0.10124 2.58261 -0.401339 1.24067 0.570412C-0.101271 1.54216 -0.40137 3.41778 0.570381 4.75972L5.42998 1.2407ZM13.5001 17.5L15.7972 19.4296C16.6823 18.3759 16.737 16.8551 15.9299 15.7405L13.5001 17.5ZM0.703091 28.0704C-0.362572 29.339 -0.198022 31.2313 1.07063 32.297C2.33927 33.3627 4.23161 33.1981 5.29727 31.9295L0.703091 28.0704ZM0.570381 4.75972L11.0703 19.2596L15.9299 15.7405L5.42998 1.2407L0.570381 4.75972ZM11.203 15.5705L5.95303 21.8204L10.5472 25.6795L15.7972 19.4296L11.203 15.5705ZM5.95303 21.8204L0.703091 28.0704L5.29727 31.9295L10.5472 25.6795L5.95303 21.8204Z" fill="#FFA633"/>
</svg>
