<svg width="17" height="33" viewBox="0 0 17 33" fill="none" xmlns="http://www.w3.org/2000/svg">
<path d="M11.0701 31.7593C12.0418 33.1012 13.9174 33.4013 15.2594 32.4296C16.6013 31.4578 16.9014 29.5822 15.9296 28.2403L11.0701 31.7593ZM2.99997 15.5L0.702878 13.5704C-0.182235 14.6241 -0.236943 16.1449 0.570167 17.2595L2.99997 15.5ZM15.7969 4.92964C16.8626 3.661 16.6981 1.76866 15.4294 0.702999C14.1608 -0.362665 12.2684 -0.198114 11.2028 1.07053L15.7969 4.92964ZM15.9296 28.2403L5.42977 13.7404L0.570167 17.2595L11.0701 31.7593L15.9296 28.2403ZM5.29706 17.4295L10.547 11.1796L5.95282 7.32046L0.702878 13.5704L5.29706 17.4295ZM10.547 11.1796L15.7969 4.92964L11.2028 1.07053L5.95282 7.32046L10.547 11.1796Z" fill="#FFA633"/>
</svg>
